<svg xmlns="http://www.w3.org/2000/svg" xmlns:xlink="http://www.w3.org/1999/xlink" width="500" zoomAndPan="magnify" viewBox="0 0 375 374.999991" height="500" preserveAspectRatio="xMidYMid meet" version="1.0"><defs><g/><clipPath id="fc944c026e"><path d="M 49.378906 136.253906 L 119.878906 136.253906 L 119.878906 218.753906 L 49.378906 218.753906 Z M 49.378906 136.253906 " clip-rule="nonzero"/></clipPath></defs><g clip-path="url(#fc944c026e)"><path fill="#d00707" d="M 101.589844 163.699219 L 96.925781 163.699219 L 99.699219 160.492188 C 100.335938 160.644531 100.992188 160.726562 101.679688 160.726562 C 106.316406 160.726562 110.101562 156.960938 110.132812 152.324219 C 110.160156 147.660156 106.386719 143.84375 101.679688 143.824219 C 97.046875 143.824219 93.25 147.589844 93.230469 152.222656 C 93.21875 153.417969 93.464844 154.601562 93.9375 155.683594 L 87.117188 163.699219 L 84.132812 163.699219 L 75.609375 153.164062 C 76.683594 151.433594 77.269531 149.429688 77.292969 147.375 C 77.3125 144.421875 76.179688 141.636719 74.101562 139.542969 C 72.027344 137.4375 69.265625 136.273438 66.238281 136.253906 C 60.1875 136.253906 55.230469 141.183594 55.1875 147.246094 C 55.167969 150.199219 56.300781 152.984375 58.375 155.089844 C 60.449219 157.191406 63.222656 158.355469 66.238281 158.378906 C 67.027344 158.378906 67.820312 158.296875 68.578125 158.132812 L 73.0625 163.722656 L 67.34375 163.722656 C 59.257812 163.699219 49.398438 166.140625 49.398438 182.847656 L 49.398438 200.507812 C 49.398438 210.386719 57.476562 218.460938 67.351562 218.460938 L 101.589844 218.460938 C 111.457031 218.460938 119.542969 210.386719 119.542969 200.507812 L 119.542969 182.847656 C 119.542969 168 109.675781 163.699219 101.589844 163.699219 Z M 103.390625 208.089844 L 65.550781 208.089844 C 62.769531 208.089844 60.421875 205.742188 60.421875 202.957031 L 60.441406 182.847656 L 60.441406 179.78125 C 60.542969 177.078125 62.839844 174.832031 65.550781 174.832031 L 103.390625 174.832031 C 106.175781 174.832031 108.523438 177.179688 108.523438 179.964844 L 108.503906 200.082031 L 108.523438 200.082031 L 108.523438 202.957031 C 108.523438 205.742188 106.175781 208.089844 103.390625 208.089844 Z M 103.390625 208.089844 " fill-opacity="1" fill-rule="nonzero"/></g><path fill="#d00707" d="M 76.835938 197.410156 C 76.816406 194.152344 76.796875 188.808594 76.773438 185.550781 C 76.753906 182.292969 79.195312 180.945312 81.988281 182.554688 C 84.769531 184.175781 89.425781 186.816406 92.207031 188.433594 C 94.992188 190.054688 95.050781 192.714844 92.277344 194.363281 C 89.507812 196.015625 84.820312 198.707031 82.046875 200.347656 C 79.285156 201.996094 76.847656 200.671875 76.835938 197.410156 Z M 76.835938 197.410156 " fill-opacity="1" fill-rule="nonzero"/><g fill="#d00707" fill-opacity="1"><g transform="translate(125.338604, 201.575641)"><g><path d="M 19.65625 0 L 10.28125 0 L 10.28125 -29.015625 L 1.078125 -29.015625 L 1.078125 -37.484375 L 28.75 -37.484375 L 28.75 -29.015625 L 19.65625 -29.015625 Z M 19.65625 0 "/></g></g></g><g fill="#d00707" fill-opacity="1"><g transform="translate(153.067302, 201.575641)"><g><path d="M 19.65625 0.703125 C 16.40625 0.703125 13.582031 0.0390625 11.1875 -1.28125 C 8.800781 -2.601562 6.960938 -4.441406 5.671875 -6.796875 C 4.390625 -9.148438 3.75 -11.863281 3.75 -14.9375 L 3.75 -37.484375 L 13.125 -37.484375 L 13.125 -15.46875 C 13.125 -13.1875 13.664062 -11.347656 14.75 -9.953125 C 15.84375 -8.566406 17.476562 -7.875 19.65625 -7.875 C 21.863281 -7.875 23.507812 -8.566406 24.59375 -9.953125 C 25.6875 -11.347656 26.234375 -13.1875 26.234375 -15.46875 L 26.234375 -37.484375 L 35.609375 -37.484375 L 35.609375 -14.9375 C 35.609375 -11.863281 34.960938 -9.148438 33.671875 -6.796875 C 32.390625 -4.441406 30.546875 -2.601562 28.140625 -1.28125 C 25.734375 0.0390625 22.90625 0.703125 19.65625 0.703125 Z M 19.65625 0.703125 "/></g></g></g><g fill="#d00707" fill-opacity="1"><g transform="translate(190.324545, 201.575641)"><g><path d="M 26.78125 -20.078125 C 28.769531 -19.328125 30.328125 -18.191406 31.453125 -16.671875 C 32.578125 -15.160156 33.140625 -13.367188 33.140625 -11.296875 C 33.140625 -7.941406 31.863281 -5.21875 29.3125 -3.125 C 26.757812 -1.039062 23.019531 0 18.09375 0 L 4.390625 0 L 4.390625 -37.484375 L 17.515625 -37.484375 C 21.941406 -37.484375 25.382812 -36.585938 27.84375 -34.796875 C 30.3125 -33.015625 31.546875 -30.554688 31.546875 -27.421875 C 31.546875 -25.804688 31.109375 -24.363281 30.234375 -23.09375 C 29.359375 -21.832031 28.207031 -20.828125 26.78125 -20.078125 Z M 13.765625 -30.203125 L 13.765625 -22.328125 L 17.234375 -22.328125 C 18.804688 -22.328125 20.03125 -22.691406 20.90625 -23.421875 C 21.78125 -24.160156 22.21875 -25.117188 22.21875 -26.296875 C 22.21875 -27.429688 21.78125 -28.363281 20.90625 -29.09375 C 20.03125 -29.832031 18.804688 -30.203125 17.234375 -30.203125 Z M 18.3125 -7.28125 C 19.957031 -7.28125 21.242188 -7.679688 22.171875 -8.484375 C 23.097656 -9.285156 23.5625 -10.296875 23.5625 -11.515625 C 23.5625 -12.765625 23.101562 -13.78125 22.1875 -14.5625 C 21.28125 -15.351562 19.988281 -15.75 18.3125 -15.75 L 13.765625 -15.75 L 13.765625 -7.28125 Z M 18.3125 -7.28125 "/></g></g></g><g fill="#d00707" fill-opacity="1"><g transform="translate(223.299291, 201.575641)"><g><path d="M 13.765625 -15.265625 L 13.765625 -7.984375 L 29.125 -7.984375 L 29.125 0 L 4.390625 0 L 4.390625 -37.484375 L 28.59375 -37.484375 L 28.59375 -29.5 L 13.765625 -29.5 L 13.765625 -23.03125 L 28.0625 -23.03125 L 28.0625 -15.265625 Z M 13.765625 -15.265625 "/></g></g></g><g fill="#f4f6fc" fill-opacity="1"><g transform="translate(242.646625, 201.575641)"><g><path d="M 25.0625 0 L 1.71875 0 L 8.890625 -37.484375 L 18.265625 -37.484375 L 12.75 -8.453125 L 26.71875 -8.453125 Z M 25.0625 0 "/></g></g></g><g fill="#f4f6fc" fill-opacity="1"><g transform="translate(269.304705, 201.575641)"><g><path d="M 9.640625 0 L 0.703125 0 L 6.109375 -27.84375 L 15 -27.84375 Z M 15.953125 -32.125 L 6.703125 -32.125 L 8.09375 -39.296875 L 17.34375 -39.296875 Z M 15.953125 -32.125 "/></g></g></g><g fill="#f4f6fc" fill-opacity="1"><g transform="translate(282.95471, 201.575641)"><g><path d="M 14.453125 -10.234375 L 24.25 -27.84375 L 33.84375 -27.84375 L 16.8125 0 L 8.828125 0 L 2.515625 -27.84375 L 11.359375 -27.84375 Z M 14.453125 -10.234375 "/></g></g></g><g fill="#f4f6fc" fill-opacity="1"><g transform="translate(312.342878, 201.575641)"><g><path d="M 17.71875 -28.546875 C 20.394531 -28.546875 22.769531 -27.960938 24.84375 -26.796875 C 26.914062 -25.640625 28.519531 -24.0625 29.65625 -22.0625 C 30.800781 -20.0625 31.375 -17.863281 31.375 -15.46875 C 31.375 -14.007812 31.179688 -12.617188 30.796875 -11.296875 L 10.0625 -11.296875 C 10.28125 -9.585938 10.890625 -8.273438 11.890625 -7.359375 C 12.890625 -6.453125 14.207031 -6 15.84375 -6 C 17.09375 -6 18.195312 -6.265625 19.15625 -6.796875 C 20.125 -7.335938 20.828125 -8 21.265625 -8.78125 L 30.046875 -8.78125 C 28.898438 -6.070312 27.03125 -3.8125 24.4375 -2 C 21.851562 -0.195312 18.773438 0.703125 15.203125 0.703125 C 12.597656 0.703125 10.25 0.148438 8.15625 -0.953125 C 6.070312 -2.066406 4.429688 -3.613281 3.234375 -5.59375 C 2.046875 -7.570312 1.453125 -9.8125 1.453125 -12.3125 C 1.453125 -15.132812 2.144531 -17.785156 3.53125 -20.265625 C 4.925781 -22.742188 6.863281 -24.742188 9.34375 -26.265625 C 11.820312 -27.785156 14.613281 -28.546875 17.71875 -28.546875 Z M 17.40625 -21.796875 C 15.832031 -21.796875 14.484375 -21.347656 13.359375 -20.453125 C 12.234375 -19.554688 11.382812 -18.363281 10.8125 -16.875 L 23.03125 -16.875 C 22.914062 -18.332031 22.375 -19.515625 21.40625 -20.421875 C 20.445312 -21.335938 19.113281 -21.796875 17.40625 -21.796875 Z M 17.40625 -21.796875 "/></g></g></g><g fill="#f4f6fc" fill-opacity="1"><g transform="translate(134.852955, 216.261665)"><g><path d="M 4.265625 0 L 2.671875 -5.546875 L 2.3125 0 L 0.453125 0 L 0.671875 -3.546875 C 0.753906 -4.984375 0.820312 -6.164062 0.875 -7.09375 L 4.03125 -7.09375 L 5.15625 -2.9375 L 6.265625 -7.09375 L 9.4375 -7.09375 C 9.476562 -6.164062 9.546875 -4.984375 9.640625 -3.546875 L 9.859375 0 L 7.984375 0 L 7.640625 -5.546875 L 6.03125 0 Z M 4.265625 0 "/></g></g></g><g fill="#f4f6fc" fill-opacity="1"><g transform="translate(151.09692, 216.261665)"><g><path d="M 3.984375 0.078125 C 2.742188 0.078125 1.789062 -0.332031 1.125 -1.15625 C 0.59375 -1.8125 0.328125 -2.585938 0.328125 -3.484375 C 0.328125 -4.429688 0.59375 -5.253906 1.125 -5.953125 C 1.789062 -6.796875 2.742188 -7.21875 3.984375 -7.21875 C 5.203125 -7.21875 6.15625 -6.796875 6.84375 -5.953125 C 7.363281 -5.273438 7.625 -4.453125 7.625 -3.484375 C 7.625 -2.578125 7.363281 -1.800781 6.84375 -1.15625 C 6.15625 -0.332031 5.203125 0.078125 3.984375 0.078125 Z M 2.671875 -1.9375 C 2.992188 -1.550781 3.425781 -1.359375 3.96875 -1.359375 C 4.519531 -1.359375 4.957031 -1.550781 5.28125 -1.9375 C 5.601562 -2.320312 5.765625 -2.835938 5.765625 -3.484375 C 5.765625 -4.160156 5.601562 -4.710938 5.28125 -5.140625 C 4.96875 -5.578125 4.53125 -5.796875 3.96875 -5.796875 C 3.414062 -5.796875 2.976562 -5.578125 2.65625 -5.140625 C 2.34375 -4.710938 2.1875 -4.160156 2.1875 -3.484375 C 2.1875 -2.835938 2.347656 -2.320312 2.671875 -1.9375 Z M 2.671875 -1.9375 "/></g></g></g><g fill="#f4f6fc" fill-opacity="1"><g transform="translate(164.990153, 216.261665)"><g><path d="M 0.5625 -7.09375 L 3.390625 -7.09375 C 4.617188 -7.09375 5.566406 -6.703125 6.234375 -5.921875 C 6.753906 -5.285156 7.015625 -4.492188 7.015625 -3.546875 C 7.015625 -2.640625 6.753906 -1.863281 6.234375 -1.21875 C 5.554688 -0.40625 4.609375 0 3.390625 0 L 0.5625 0 Z M 2.4375 -5.65625 L 2.4375 -1.4375 L 3.546875 -1.4375 C 4.066406 -1.4375 4.460938 -1.625 4.734375 -2 C 5.015625 -2.382812 5.15625 -2.898438 5.15625 -3.546875 C 5.15625 -4.953125 4.617188 -5.65625 3.546875 -5.65625 Z M 2.4375 -5.65625 "/></g></g></g><g fill="#f4f6fc" fill-opacity="1"><g transform="translate(178.277524, 216.261665)"><g><path d="M 0.5625 -7.09375 L 5.921875 -7.09375 L 5.921875 -5.65625 L 2.4375 -5.65625 L 2.4375 -4.25 L 5.078125 -4.25 L 5.078125 -2.78125 L 2.4375 -2.78125 L 2.4375 -1.4375 L 5.921875 -1.4375 L 5.921875 0 L 0.5625 0 Z M 0.5625 -7.09375 "/></g></g></g><g fill="#f4f6fc" fill-opacity="1"><g transform="translate(190.522834, 216.261665)"><g><path d="M 6.71875 -4.578125 C 6.71875 -4.171875 6.609375 -3.765625 6.390625 -3.359375 C 6.179688 -2.953125 5.867188 -2.625 5.453125 -2.375 L 6.578125 0 L 4.515625 0 L 3.546875 -2.0625 L 2.4375 -2.0625 L 2.4375 0 L 0.5625 0 L 0.5625 -7.09375 L 3.875 -7.09375 C 4.8125 -7.09375 5.519531 -6.851562 6 -6.375 C 6.476562 -5.894531 6.71875 -5.296875 6.71875 -4.578125 Z M 2.4375 -3.484375 L 3.78125 -3.484375 C 4.09375 -3.484375 4.347656 -3.582031 4.546875 -3.78125 C 4.753906 -3.976562 4.859375 -4.238281 4.859375 -4.5625 C 4.859375 -4.894531 4.753906 -5.160156 4.546875 -5.359375 C 4.347656 -5.554688 4.09375 -5.65625 3.78125 -5.65625 L 2.4375 -5.65625 Z M 2.4375 -3.484375 "/></g></g></g><g fill="#f4f6fc" fill-opacity="1"><g transform="translate(203.446697, 216.261665)"><g><path d="M 2.4375 -4.3125 L 2.4375 0 L 0.5625 0 L 0.5625 -7.09375 L 2.671875 -7.09375 L 5.46875 -2.890625 L 5.46875 -7.09375 L 7.328125 -7.09375 L 7.328125 0 L 5.28125 0 Z M 2.4375 -4.3125 "/></g></g></g><g fill="#f4f6fc" fill-opacity="1"><g transform="translate(217.294356, 216.261665)"><g/></g></g><g fill="#f4f6fc" fill-opacity="1"><g transform="translate(225.528887, 216.261665)"><g/></g></g><g fill="#f4f6fc" fill-opacity="1"><g transform="translate(233.770917, 216.261665)"><g><path d="M 7.234375 -1.765625 L 8.171875 -7.09375 L 10.09375 -7.09375 L 8.640625 0 L 6.0625 0 L 5.0625 -3.875 L 4.09375 0 L 1.546875 0 L 0.078125 -7.09375 L 2 -7.09375 L 2.9375 -1.765625 L 4.234375 -7.09375 L 5.875 -7.09375 Z M 7.234375 -1.765625 "/></g></g></g><g fill="#f4f6fc" fill-opacity="1"><g transform="translate(249.881593, 216.261665)"><g><path d="M 7.546875 0 L 5.578125 0 L 5.078125 -1.4375 L 2.5625 -1.4375 L 2.0625 0 L 0.078125 0 L 2.40625 -7.09375 L 5.21875 -7.09375 Z M 4.765625 -2.90625 L 3.8125 -5.8125 L 2.875 -2.90625 Z M 4.765625 -2.90625 "/></g></g></g><g fill="#f4f6fc" fill-opacity="1"><g transform="translate(263.459782, 216.261665)"><g><path d="M 4.0625 0 L 2.1875 0 L 2.1875 -5.65625 L 0.140625 -5.65625 L 0.140625 -7.09375 L 6.109375 -7.09375 L 6.109375 -5.65625 L 4.0625 -5.65625 Z M 4.0625 0 "/></g></g></g><g fill="#f4f6fc" fill-opacity="1"><g transform="translate(275.656611, 216.261665)"><g><path d="M 4.015625 -1.359375 C 4.492188 -1.359375 4.875 -1.445312 5.15625 -1.625 C 5.4375 -1.8125 5.578125 -2.082031 5.578125 -2.4375 L 7.484375 -2.4375 C 7.367188 -1.675781 7.003906 -1.066406 6.390625 -0.609375 C 5.773438 -0.148438 4.984375 0.078125 4.015625 0.078125 C 2.773438 0.078125 1.816406 -0.332031 1.140625 -1.15625 C 0.597656 -1.8125 0.328125 -2.585938 0.328125 -3.484375 C 0.328125 -4.441406 0.597656 -5.265625 1.140625 -5.953125 C 1.816406 -6.796875 2.773438 -7.21875 4.015625 -7.21875 C 4.984375 -7.21875 5.773438 -6.988281 6.390625 -6.53125 C 7.003906 -6.082031 7.367188 -5.476562 7.484375 -4.71875 L 5.578125 -4.71875 C 5.578125 -5.070312 5.441406 -5.335938 5.171875 -5.515625 C 4.898438 -5.703125 4.53125 -5.796875 4.0625 -5.796875 C 3.507812 -5.796875 3.054688 -5.570312 2.703125 -5.125 C 2.359375 -4.6875 2.1875 -4.140625 2.1875 -3.484375 C 2.1875 -2.835938 2.351562 -2.320312 2.6875 -1.9375 C 3.019531 -1.550781 3.460938 -1.359375 4.015625 -1.359375 Z M 4.015625 -1.359375 "/></g></g></g><g fill="#f4f6fc" fill-opacity="1"><g transform="translate(289.404438, 216.261665)"><g><path d="M 2.4375 0 L 0.5625 0 L 0.5625 -7.09375 L 2.4375 -7.09375 L 2.4375 -4.140625 L 5 -4.140625 L 5 -7.09375 L 6.875 -7.09375 L 6.875 0 L 5 0 L 5 -2.671875 L 2.4375 -2.671875 Z M 2.4375 0 "/></g></g></g><g fill="#f4f6fc" fill-opacity="1"><g transform="translate(302.788755, 216.261665)"><g/></g></g><g fill="#f4f6fc" fill-opacity="1"><g transform="translate(311.023288, 216.261665)"><g><path d="M 7.546875 0 L 5.578125 0 L 5.078125 -1.4375 L 2.5625 -1.4375 L 2.0625 0 L 0.078125 0 L 2.40625 -7.09375 L 5.21875 -7.09375 Z M 4.765625 -2.90625 L 3.8125 -5.8125 L 2.875 -2.90625 Z M 4.765625 -2.90625 "/></g></g></g><g fill="#f4f6fc" fill-opacity="1"><g transform="translate(324.601479, 216.261665)"><g><path d="M 0.5625 0 L 0.5625 -7.09375 L 3.796875 -7.09375 C 4.734375 -7.09375 5.453125 -6.847656 5.953125 -6.359375 C 6.460938 -5.878906 6.71875 -5.285156 6.71875 -4.578125 C 6.71875 -3.878906 6.460938 -3.28125 5.953125 -2.78125 C 5.453125 -2.289062 4.734375 -2.046875 3.796875 -2.046875 L 2.4375 -2.046875 L 2.4375 0 Z M 2.4375 -3.484375 L 3.78125 -3.484375 C 4.09375 -3.484375 4.347656 -3.582031 4.546875 -3.78125 C 4.753906 -3.976562 4.859375 -4.238281 4.859375 -4.5625 C 4.859375 -4.894531 4.753906 -5.160156 4.546875 -5.359375 C 4.347656 -5.554688 4.09375 -5.65625 3.78125 -5.65625 L 2.4375 -5.65625 Z M 2.4375 -3.484375 "/></g></g></g><g fill="#f4f6fc" fill-opacity="1"><g transform="translate(337.464751, 216.261665)"><g><path d="M 0.5625 0 L 0.5625 -7.09375 L 3.796875 -7.09375 C 4.734375 -7.09375 5.453125 -6.847656 5.953125 -6.359375 C 6.460938 -5.878906 6.71875 -5.285156 6.71875 -4.578125 C 6.71875 -3.878906 6.460938 -3.28125 5.953125 -2.78125 C 5.453125 -2.289062 4.734375 -2.046875 3.796875 -2.046875 L 2.4375 -2.046875 L 2.4375 0 Z M 2.4375 -3.484375 L 3.78125 -3.484375 C 4.09375 -3.484375 4.347656 -3.582031 4.546875 -3.78125 C 4.753906 -3.976562 4.859375 -4.238281 4.859375 -4.5625 C 4.859375 -4.894531 4.753906 -5.160156 4.546875 -5.359375 C 4.347656 -5.554688 4.09375 -5.65625 3.78125 -5.65625 L 2.4375 -5.65625 Z M 2.4375 -3.484375 "/></g></g></g></svg>